<mxfile host="app.diagrams.net" modified="2024-05-28T11:11:09.000Z" agent="Mozilla/5.0 (Windows NT 10.0; Win64; x64) AppleWebKit/537.36 (KHTML, like Gecko) Chrome/124.0.0.0 Safari/537.36" etag="Y1w4AmQYHRv4y_5jqZ7F" version="24.4.9" type="google">
  <diagram name="Page-1" id="ehXi02ZYsUyjt4NZXXoE">
    <mxGraphModel grid="1" page="1" gridSize="10" guides="1" tooltips="1" connect="1" arrows="1" fold="1" pageScale="1" pageWidth="827" pageHeight="1169" math="0" shadow="0">
      <root>
        <mxCell id="0" />
        <mxCell id="1" parent="0" />
        <mxCell id="VE1ikKVt3g_HmMdu5LOk-9" value="&lt;pre style=&quot;box-sizing: border-box; border: none; margin-top: var(--spacing-sm); margin-bottom: var(--spacing-sm); position: relative; background: var(--code-background-fill); font-family: var(--font-mono); font-size: var(--text-sm); text-align: left; word-break: normal; overflow-wrap: normal; line-height: 1.5; tab-size: 2; hyphens: none; overflow: auto; box-shadow: none; padding: var(--spacing-lg) var(--spacing-xl); text-shadow: none; border-radius: var(--radius-sm); color: rgb(243, 244, 246);&quot;&gt;&lt;pre style=&quot;box-sizing: border-box; border: none; margin-top: var(--spacing-sm); margin-bottom: var(--spacing-sm); position: relative; background: var(--code-background-fill); font-family: var(--font-mono); font-size: var(--text-sm); word-break: normal; overflow-wrap: normal; line-height: 1.5; tab-size: 2; hyphens: none; overflow: auto; box-shadow: none; padding: var(--spacing-lg) var(--spacing-xl); text-shadow: none; border-radius: var(--radius-sm); color: rgb(31, 41, 55);&quot;&gt;&lt;code style=&quot;box-sizing: border-box; border-width: 0px; border-style: solid; background: none; font-family: var(--font-mono); font-size: var(--text-sm); word-spacing: normal; word-break: normal; overflow-wrap: normal; line-height: 1.5; tab-size: 2; hyphens: none;&quot; class=&quot;language-mermaid&quot;&gt;UserManagementModule &lt;/code&gt;&lt;/pre&gt;&lt;/pre&gt;" style="swimlane;childLayout=stackLayout;horizontal=1;startSize=50;horizontalStack=0;rounded=1;fontSize=14;fontStyle=0;strokeWidth=2;resizeParent=0;resizeLast=1;shadow=0;dashed=0;align=center;arcSize=4;whiteSpace=wrap;html=1;" vertex="1" parent="1">
          <mxGeometry x="30" y="120" width="200" height="120" as="geometry" />
        </mxCell>
        <mxCell id="VE1ikKVt3g_HmMdu5LOk-10" value="&lt;pre style=&quot;box-sizing: border-box; border: none; margin-top: var(--spacing-sm); margin-bottom: var(--spacing-sm); position: relative; background: var(--code-background-fill); font-family: var(--font-mono); font-size: var(--text-sm); word-break: normal; overflow-wrap: normal; line-height: 1.5; tab-size: 2; hyphens: none; overflow: auto; box-shadow: none; padding: var(--spacing-lg) var(--spacing-xl); text-shadow: none; border-radius: var(--radius-sm); color: rgb(31, 41, 55);&quot;&gt;&lt;code style=&quot;box-sizing: border-box; border-width: 0px; border-style: solid; background: none; font-family: var(--font-mono); font-size: var(--text-sm); word-spacing: normal; word-break: normal; overflow-wrap: normal; line-height: 1.5; tab-size: 2; hyphens: none;&quot; class=&quot;language-mermaid&quot;&gt;+registerUser()&lt;br/&gt;+loginUser()&lt;br/&gt;+updateUserProfile()&lt;/code&gt;&lt;/pre&gt;" style="align=left;strokeColor=none;fillColor=none;spacingLeft=4;fontSize=12;verticalAlign=top;resizable=0;rotatable=0;part=1;html=1;" vertex="1" parent="VE1ikKVt3g_HmMdu5LOk-9">
          <mxGeometry y="50" width="200" height="70" as="geometry" />
        </mxCell>
        <mxCell id="VE1ikKVt3g_HmMdu5LOk-11" value="&lt;pre style=&quot;box-sizing: border-box; border: none; margin-top: var(--spacing-sm); margin-bottom: var(--spacing-sm); position: relative; background: var(--code-background-fill); font-family: var(--font-mono); font-size: var(--text-sm); text-align: left; word-break: normal; overflow-wrap: normal; line-height: 1.5; tab-size: 2; hyphens: none; overflow: auto; box-shadow: none; padding: var(--spacing-lg) var(--spacing-xl); text-shadow: none; border-radius: var(--radius-sm); color: rgb(31, 41, 55);&quot;&gt;&lt;code style=&quot;box-sizing: border-box; border-width: 0px; border-style: solid; background: none; font-family: var(--font-mono); font-size: var(--text-sm); word-spacing: normal; word-break: normal; overflow-wrap: normal; line-height: 1.5; tab-size: 2; hyphens: none;&quot; class=&quot;language-mermaid&quot;&gt;RestaurantManagementModule &lt;/code&gt;&lt;/pre&gt;" style="swimlane;childLayout=stackLayout;horizontal=1;startSize=50;horizontalStack=0;rounded=1;fontSize=14;fontStyle=0;strokeWidth=2;resizeParent=0;resizeLast=1;shadow=0;dashed=0;align=center;arcSize=4;whiteSpace=wrap;html=1;" vertex="1" parent="1">
          <mxGeometry x="280" y="120" width="240" height="120" as="geometry" />
        </mxCell>
        <mxCell id="VE1ikKVt3g_HmMdu5LOk-12" value="&lt;pre style=&quot;box-sizing: border-box; border: none; margin-top: var(--spacing-sm); margin-bottom: var(--spacing-sm); position: relative; background: var(--code-background-fill); font-family: var(--font-mono); font-size: var(--text-sm); word-break: normal; overflow-wrap: normal; line-height: 1.5; tab-size: 2; hyphens: none; overflow: auto; box-shadow: none; padding: var(--spacing-lg) var(--spacing-xl); text-shadow: none; border-radius: var(--radius-sm); color: rgb(31, 41, 55);&quot;&gt;&lt;code style=&quot;box-sizing: border-box; border-width: 0px; border-style: solid; background: none; font-family: var(--font-mono); font-size: var(--text-sm); word-spacing: normal; word-break: normal; overflow-wrap: normal; line-height: 1.5; tab-size: 2; hyphens: none;&quot; class=&quot;language-mermaid&quot;&gt;+registerRestaurant()&lt;br/&gt;+updateMenu()&lt;br/&gt;+viewOrders()&lt;/code&gt;&lt;/pre&gt;" style="align=left;strokeColor=none;fillColor=none;spacingLeft=4;fontSize=12;verticalAlign=top;resizable=0;rotatable=0;part=1;html=1;" vertex="1" parent="VE1ikKVt3g_HmMdu5LOk-11">
          <mxGeometry y="50" width="240" height="70" as="geometry" />
        </mxCell>
        <mxCell id="VE1ikKVt3g_HmMdu5LOk-13" value="&lt;pre style=&quot;box-sizing: border-box; border: none; margin-top: var(--spacing-sm); margin-bottom: var(--spacing-sm); position: relative; background: var(--code-background-fill); font-family: var(--font-mono); font-size: var(--text-sm); text-align: left; word-break: normal; overflow-wrap: normal; line-height: 1.5; tab-size: 2; hyphens: none; overflow: auto; box-shadow: none; padding: var(--spacing-lg) var(--spacing-xl); text-shadow: none; border-radius: var(--radius-sm); color: rgb(31, 41, 55);&quot;&gt;&lt;code style=&quot;box-sizing: border-box; border-width: 0px; border-style: solid; background: none; font-family: var(--font-mono); font-size: var(--text-sm); word-spacing: normal; word-break: normal; overflow-wrap: normal; line-height: 1.5; tab-size: 2; hyphens: none;&quot; class=&quot;language-mermaid&quot;&gt;OrderManagementModule &lt;/code&gt;&lt;/pre&gt;" style="swimlane;childLayout=stackLayout;horizontal=1;startSize=50;horizontalStack=0;rounded=1;fontSize=14;fontStyle=0;strokeWidth=2;resizeParent=0;resizeLast=1;shadow=0;dashed=0;align=center;arcSize=4;whiteSpace=wrap;html=1;" vertex="1" parent="1">
          <mxGeometry x="560" y="120" width="200" height="120" as="geometry" />
        </mxCell>
        <mxCell id="VE1ikKVt3g_HmMdu5LOk-14" value="&lt;pre style=&quot;box-sizing: border-box; border: none; margin-top: var(--spacing-sm); margin-bottom: var(--spacing-sm); position: relative; background: var(--code-background-fill); font-family: var(--font-mono); font-size: var(--text-sm); word-break: normal; overflow-wrap: normal; line-height: 1.5; tab-size: 2; hyphens: none; overflow: auto; box-shadow: none; padding: var(--spacing-lg) var(--spacing-xl); text-shadow: none; border-radius: var(--radius-sm); color: rgb(31, 41, 55);&quot;&gt;&lt;code style=&quot;box-sizing: border-box; border-width: 0px; border-style: solid; background: none; font-family: var(--font-mono); font-size: var(--text-sm); word-spacing: normal; word-break: normal; overflow-wrap: normal; line-height: 1.5; tab-size: 2; hyphens: none;&quot; class=&quot;language-mermaid&quot;&gt;+placeOrder()&lt;br/&gt;+trackOrder()&lt;br/&gt;+cancelOrder()&lt;/code&gt;&lt;/pre&gt;" style="align=left;strokeColor=none;fillColor=none;spacingLeft=4;fontSize=12;verticalAlign=top;resizable=0;rotatable=0;part=1;html=1;" vertex="1" parent="VE1ikKVt3g_HmMdu5LOk-13">
          <mxGeometry y="50" width="200" height="70" as="geometry" />
        </mxCell>
        <mxCell id="VE1ikKVt3g_HmMdu5LOk-15" value="&lt;pre style=&quot;box-sizing: border-box; border: none; margin-top: var(--spacing-sm); margin-bottom: var(--spacing-sm); position: relative; background: var(--code-background-fill); font-family: var(--font-mono); font-size: var(--text-sm); text-align: left; word-break: normal; overflow-wrap: normal; line-height: 1.5; tab-size: 2; hyphens: none; overflow: auto; box-shadow: none; padding: var(--spacing-lg) var(--spacing-xl); text-shadow: none; border-radius: var(--radius-sm); color: rgb(31, 41, 55);&quot;&gt;&lt;code style=&quot;box-sizing: border-box; border-width: 0px; border-style: solid; background: none; font-family: var(--font-mono); font-size: var(--text-sm); word-spacing: normal; word-break: normal; overflow-wrap: normal; line-height: 1.5; tab-size: 2; hyphens: none;&quot; class=&quot;language-mermaid&quot;&gt;CourierManagementModule&lt;/code&gt;&lt;/pre&gt;" style="swimlane;childLayout=stackLayout;horizontal=1;startSize=50;horizontalStack=0;rounded=1;fontSize=14;fontStyle=0;strokeWidth=2;resizeParent=0;resizeLast=1;shadow=0;dashed=0;align=center;arcSize=4;whiteSpace=wrap;html=1;" vertex="1" parent="1">
          <mxGeometry x="800" y="120" width="200" height="120" as="geometry" />
        </mxCell>
        <mxCell id="VE1ikKVt3g_HmMdu5LOk-16" value="&lt;pre style=&quot;box-sizing: border-box; border: none; margin-top: var(--spacing-sm); margin-bottom: var(--spacing-sm); position: relative; background: var(--code-background-fill); font-family: var(--font-mono); font-size: var(--text-sm); word-break: normal; overflow-wrap: normal; line-height: 1.5; tab-size: 2; hyphens: none; overflow: auto; box-shadow: none; padding: var(--spacing-lg) var(--spacing-xl); text-shadow: none; border-radius: var(--radius-sm); color: rgb(31, 41, 55);&quot;&gt;&lt;code style=&quot;box-sizing: border-box; border-width: 0px; border-style: solid; background: none; font-family: var(--font-mono); font-size: var(--text-sm); word-spacing: normal; word-break: normal; overflow-wrap: normal; line-height: 1.5; tab-size: 2; hyphens: none;&quot; class=&quot;language-mermaid&quot;&gt;+assignOrder()&lt;br/&gt;+trackDelivery()&lt;br/&gt;+updateDeliveryStatus()&lt;/code&gt;&lt;/pre&gt;" style="align=left;strokeColor=none;fillColor=none;spacingLeft=4;fontSize=12;verticalAlign=top;resizable=0;rotatable=0;part=1;html=1;" vertex="1" parent="VE1ikKVt3g_HmMdu5LOk-15">
          <mxGeometry y="50" width="200" height="70" as="geometry" />
        </mxCell>
        <mxCell id="VE1ikKVt3g_HmMdu5LOk-17" value="&lt;pre style=&quot;box-sizing: border-box; border: none; margin-top: var(--spacing-sm); margin-bottom: var(--spacing-sm); position: relative; background: var(--code-background-fill); font-family: var(--font-mono); font-size: var(--text-sm); text-align: left; word-break: normal; overflow-wrap: normal; line-height: 1.5; tab-size: 2; hyphens: none; overflow: auto; box-shadow: none; padding: var(--spacing-lg) var(--spacing-xl); text-shadow: none; border-radius: var(--radius-sm); color: rgb(31, 41, 55);&quot;&gt;&lt;code style=&quot;box-sizing: border-box; border-width: 0px; border-style: solid; background: none; font-family: var(--font-mono); font-size: var(--text-sm); word-spacing: normal; word-break: normal; overflow-wrap: normal; line-height: 1.5; tab-size: 2; hyphens: none;&quot; class=&quot;language-mermaid&quot;&gt;PaymentModule&lt;/code&gt;&lt;/pre&gt;" style="swimlane;childLayout=stackLayout;horizontal=1;startSize=50;horizontalStack=0;rounded=1;fontSize=14;fontStyle=0;strokeWidth=2;resizeParent=0;resizeLast=1;shadow=0;dashed=0;align=center;arcSize=4;whiteSpace=wrap;html=1;" vertex="1" parent="1">
          <mxGeometry x="1040" y="120" width="160" height="120" as="geometry" />
        </mxCell>
        <mxCell id="VE1ikKVt3g_HmMdu5LOk-18" value="&lt;pre style=&quot;box-sizing: border-box; border: none; margin-top: var(--spacing-sm); margin-bottom: var(--spacing-sm); position: relative; background: var(--code-background-fill); font-family: var(--font-mono); font-size: var(--text-sm); word-break: normal; overflow-wrap: normal; line-height: 1.5; tab-size: 2; hyphens: none; overflow: auto; box-shadow: none; padding: var(--spacing-lg) var(--spacing-xl); text-shadow: none; border-radius: var(--radius-sm); color: rgb(31, 41, 55);&quot;&gt;&lt;code style=&quot;box-sizing: border-box; border-width: 0px; border-style: solid; background: none; font-family: var(--font-mono); font-size: var(--text-sm); word-spacing: normal; word-break: normal; overflow-wrap: normal; line-height: 1.5; tab-size: 2; hyphens: none;&quot; class=&quot;language-mermaid&quot;&gt;+processPayment()&lt;br/&gt;+handleRefund()&lt;/code&gt;&lt;/pre&gt;" style="align=left;strokeColor=none;fillColor=none;spacingLeft=4;fontSize=12;verticalAlign=top;resizable=0;rotatable=0;part=1;html=1;" vertex="1" parent="VE1ikKVt3g_HmMdu5LOk-17">
          <mxGeometry y="50" width="160" height="70" as="geometry" />
        </mxCell>
        <mxCell id="VE1ikKVt3g_HmMdu5LOk-19" value="&lt;pre style=&quot;box-sizing: border-box; border: none; margin-top: var(--spacing-sm); margin-bottom: var(--spacing-sm); position: relative; background: var(--code-background-fill); font-family: var(--font-mono); font-size: var(--text-sm); text-align: left; word-break: normal; overflow-wrap: normal; line-height: 1.5; tab-size: 2; hyphens: none; overflow: auto; box-shadow: none; padding: var(--spacing-lg) var(--spacing-xl); text-shadow: none; border-radius: var(--radius-sm); color: rgb(31, 41, 55);&quot;&gt;&lt;code style=&quot;box-sizing: border-box; border-width: 0px; border-style: solid; background: none; font-family: var(--font-mono); font-size: var(--text-sm); word-spacing: normal; word-break: normal; overflow-wrap: normal; line-height: 1.5; tab-size: 2; hyphens: none;&quot; class=&quot;language-mermaid&quot;&gt;AnalyticsModule &lt;/code&gt;&lt;/pre&gt;" style="swimlane;childLayout=stackLayout;horizontal=1;startSize=50;horizontalStack=0;rounded=1;fontSize=14;fontStyle=0;strokeWidth=2;resizeParent=0;resizeLast=1;shadow=0;dashed=0;align=center;arcSize=4;whiteSpace=wrap;html=1;" vertex="1" parent="1">
          <mxGeometry x="1241" y="120" width="160" height="120" as="geometry" />
        </mxCell>
        <mxCell id="VE1ikKVt3g_HmMdu5LOk-20" value="&lt;pre style=&quot;box-sizing: border-box; border: none; margin-top: var(--spacing-sm); margin-bottom: var(--spacing-sm); position: relative; background: var(--code-background-fill); font-family: var(--font-mono); font-size: var(--text-sm); word-break: normal; overflow-wrap: normal; line-height: 1.5; tab-size: 2; hyphens: none; overflow: auto; box-shadow: none; padding: var(--spacing-lg) var(--spacing-xl); text-shadow: none; border-radius: var(--radius-sm); color: rgb(31, 41, 55);&quot;&gt;&lt;code style=&quot;box-sizing: border-box; border-width: 0px; border-style: solid; background: none; font-family: var(--font-mono); font-size: var(--text-sm); word-spacing: normal; word-break: normal; overflow-wrap: normal; line-height: 1.5; tab-size: 2; hyphens: none;&quot; class=&quot;language-mermaid&quot;&gt;+generateSalesReport()&lt;br&gt;&lt;/code&gt;&lt;/pre&gt;" style="align=left;strokeColor=none;fillColor=none;spacingLeft=4;fontSize=12;verticalAlign=top;resizable=0;rotatable=0;part=1;html=1;" vertex="1" parent="VE1ikKVt3g_HmMdu5LOk-19">
          <mxGeometry y="50" width="160" height="70" as="geometry" />
        </mxCell>
        <mxCell id="VE1ikKVt3g_HmMdu5LOk-23" style="edgeStyle=orthogonalEdgeStyle;rounded=0;orthogonalLoop=1;jettySize=auto;html=1;entryX=0.5;entryY=1;entryDx=0;entryDy=0;curved=1;" edge="1" parent="1" source="VE1ikKVt3g_HmMdu5LOk-21" target="VE1ikKVt3g_HmMdu5LOk-10">
          <mxGeometry relative="1" as="geometry" />
        </mxCell>
        <mxCell id="VE1ikKVt3g_HmMdu5LOk-24" style="edgeStyle=orthogonalEdgeStyle;rounded=0;orthogonalLoop=1;jettySize=auto;html=1;entryX=0.5;entryY=1;entryDx=0;entryDy=0;curved=1;" edge="1" parent="1" source="VE1ikKVt3g_HmMdu5LOk-21" target="VE1ikKVt3g_HmMdu5LOk-12">
          <mxGeometry relative="1" as="geometry" />
        </mxCell>
        <mxCell id="VE1ikKVt3g_HmMdu5LOk-25" style="edgeStyle=orthogonalEdgeStyle;rounded=0;orthogonalLoop=1;jettySize=auto;html=1;entryX=0.5;entryY=1;entryDx=0;entryDy=0;curved=1;" edge="1" parent="1" source="VE1ikKVt3g_HmMdu5LOk-21" target="VE1ikKVt3g_HmMdu5LOk-14">
          <mxGeometry relative="1" as="geometry" />
        </mxCell>
        <mxCell id="VE1ikKVt3g_HmMdu5LOk-26" style="edgeStyle=orthogonalEdgeStyle;rounded=0;orthogonalLoop=1;jettySize=auto;html=1;entryX=0.5;entryY=1;entryDx=0;entryDy=0;curved=1;" edge="1" parent="1" source="VE1ikKVt3g_HmMdu5LOk-21" target="VE1ikKVt3g_HmMdu5LOk-16">
          <mxGeometry relative="1" as="geometry" />
        </mxCell>
        <mxCell id="VE1ikKVt3g_HmMdu5LOk-27" style="edgeStyle=orthogonalEdgeStyle;rounded=0;orthogonalLoop=1;jettySize=auto;html=1;entryX=0.5;entryY=1;entryDx=0;entryDy=0;curved=1;" edge="1" parent="1" source="VE1ikKVt3g_HmMdu5LOk-21" target="VE1ikKVt3g_HmMdu5LOk-18">
          <mxGeometry relative="1" as="geometry" />
        </mxCell>
        <mxCell id="VE1ikKVt3g_HmMdu5LOk-28" style="edgeStyle=orthogonalEdgeStyle;rounded=0;orthogonalLoop=1;jettySize=auto;html=1;entryX=0.5;entryY=1;entryDx=0;entryDy=0;curved=1;" edge="1" parent="1" source="VE1ikKVt3g_HmMdu5LOk-21" target="VE1ikKVt3g_HmMdu5LOk-20">
          <mxGeometry relative="1" as="geometry" />
        </mxCell>
        <mxCell id="VE1ikKVt3g_HmMdu5LOk-21" value="App" style="swimlane;childLayout=stackLayout;horizontal=1;startSize=50;horizontalStack=0;rounded=1;fontSize=14;fontStyle=0;strokeWidth=2;resizeParent=0;resizeLast=1;shadow=0;dashed=0;align=center;arcSize=4;whiteSpace=wrap;html=1;" vertex="1" parent="1">
          <mxGeometry x="700" y="360" width="160" height="70" as="geometry" />
        </mxCell>
      </root>
    </mxGraphModel>
  </diagram>
</mxfile>
